<svg width="206" height="51" viewBox="0 0 206 51" fill="none" xmlns="http://www.w3.org/2000/svg">
<g clip-path="url(#clip0_237_1636)">
<mask id="mask0_237_1636" style="mask-type:luminance" maskUnits="userSpaceOnUse" x="0" y="0" width="205" height="51">
<path d="M204.817 0H0.286133V51H204.817V0Z" fill="white"/>
</mask>
<g mask="url(#mask0_237_1636)">
<path d="M76.3223 6.56854L70.1182 22.9637H82.7395L76.5354 6.56854H76.3223ZM59.3525 37.1768L73.6714 0.831299H79.1868L93.5051 37.1768C90.2618 37.1768 87.3692 35.2229 86.2829 32.2978L84.437 27.3288H68.4739L66.5982 32.3054C65.4965 35.2289 62.5987 37.1768 59.3525 37.1768Z" fill="white"/>
<path d="M119.915 37.1776H115.248V33.7255H115.035C114.293 34.9434 113.154 35.9585 111.615 36.7707C110.077 37.5828 108.477 37.9897 106.815 37.9897C103.634 37.9897 101.185 37.1189 99.4712 35.375C97.7565 33.6328 96.8994 31.1541 96.8994 27.9389V12.3049H101.778V27.634C101.883 31.6954 104.022 33.7255 108.194 33.7255C110.139 33.7255 111.765 32.9736 113.074 31.4667C114.381 29.9608 115.035 28.1599 115.035 26.0607V12.3049H119.915V37.1776Z" fill="white"/>
<path d="M132.059 37.1778H127.179V12.3052H131.846V16.3654H132.059C132.553 15.0455 133.57 13.9207 135.108 12.9907C136.645 12.0595 138.156 11.5934 139.642 11.5934C141.055 11.5934 142.257 11.7979 143.248 12.2032L141.763 16.7214C141.161 16.4844 140.206 16.3654 138.9 16.3654C137.06 16.3654 135.46 17.0756 134.101 18.4976C132.738 19.9195 132.059 21.5779 132.059 23.472V37.1778Z" fill="white"/>
<path d="M153.059 37.1768H148.179V12.3041H153.059V37.1768ZM154.066 3.72463C154.066 4.63879 153.73 5.4175 153.059 6.06076C152.387 6.70292 151.574 7.02483 150.619 7.02483C149.665 7.02483 148.85 6.70292 148.179 6.06076C147.508 5.4175 147.172 4.63879 147.172 3.72463C147.172 2.81156 147.508 2.03341 148.179 1.3896C148.85 0.74744 149.665 0.425537 150.619 0.425537C151.574 0.425537 152.387 0.74744 153.059 1.3896C153.73 2.03341 154.066 2.81156 154.066 3.72463Z" fill="white"/>
<path d="M172.732 0.426636C174.498 0.426636 175.948 0.714537 177.08 1.28979L175.754 5.40105C174.906 4.99579 173.952 4.79179 172.891 4.79179C171.689 4.79179 170.707 5.19048 169.948 5.98453C169.187 6.77969 168.807 7.83807 168.807 9.15804V12.3052H175.596V16.5678H168.807V37.1779H163.928V16.5678H159.05V12.3052H163.928V8.70014C163.928 6.2302 164.751 4.23463 166.395 2.71067C168.039 1.18779 170.15 0.426636 172.732 0.426636Z" fill="white"/>
<path d="M204.816 12.3052L188.535 49.2863C186.026 49.2863 184.347 46.8158 185.365 44.6206L189.542 35.604L180.966 16.9517C179.96 14.7626 181.634 12.3052 184.133 12.3052L191.876 30.1717H191.981L197.528 17.0131C198.727 14.1681 201.611 12.3052 204.816 12.3052Z" fill="white"/>
</g>
<path d="M61.1377 43.5662V42.9578H65.5755V43.5662H63.7147V48.6212H62.9985V43.5662H61.1377Z" fill="white"/>
<path d="M71.0332 48.6212V42.9578H74.6042V43.5662H71.7499V45.4798H74.4191V46.0882H71.7499V48.0128H74.6506V48.6212H71.0332ZM85.4873 44.7276H84.7705C84.7281 44.5304 84.6542 44.3571 84.5482 44.2077C84.444 44.0584 84.3168 43.9331 84.1667 43.8317C84.0183 43.7284 83.8539 43.651 83.6728 43.5994C83.4918 43.5478 83.3027 43.5219 83.1068 43.5219C82.7482 43.5219 82.4239 43.6086 82.1328 43.7819C81.8441 43.9552 81.6138 44.2105 81.4425 44.5478C81.2729 44.8852 81.1881 45.2991 81.1881 45.7895C81.1881 46.2799 81.2729 46.6937 81.4425 47.0311C81.6138 47.3685 81.8441 47.6238 82.1328 47.7971C82.4239 47.9704 82.7482 48.057 83.1068 48.057C83.3027 48.057 83.4918 48.0313 83.6728 47.9796C83.8539 47.928 84.0183 47.8515 84.1667 47.7501C84.3168 47.6468 84.444 47.5205 84.5482 47.3712C84.6542 47.2201 84.7281 47.0468 84.7705 46.8513H85.4873C85.4328 47.1408 85.3349 47.3998 85.1922 47.6284C85.0501 47.857 84.8725 48.0515 84.6605 48.2119C84.4491 48.3704 84.2108 48.4912 83.9473 48.5742C83.6854 48.6571 83.4053 48.6986 83.1068 48.6986C82.6021 48.6986 82.1529 48.5806 81.7604 48.3446C81.3674 48.1086 81.0581 47.7731 80.8329 47.338C80.6077 46.903 80.4949 46.3868 80.4949 45.7895C80.4949 45.1922 80.6077 44.676 80.8329 44.2409C81.0581 43.8058 81.3674 43.4703 81.7604 43.2344C82.1529 42.9984 82.6021 42.8804 83.1068 42.8804C83.4053 42.8804 83.6854 42.9219 83.9473 43.0049C84.2108 43.0878 84.4491 43.2095 84.6605 43.3699C84.8725 43.5284 85.0501 43.722 85.1922 43.9505C85.3349 44.1773 85.4328 44.4364 85.4873 44.7276Z" fill="white"/>
<path d="M91.6123 48.6212V42.9578H92.3284V45.4798H95.4835V42.9578H96.2002V48.6212H95.4835V46.0882H92.3284V48.6212H91.6123Z" fill="white"/>
<path d="M107.101 42.9578V48.6212H106.408L103.183 44.1746H103.126V48.6212H102.409V42.9578H103.102L106.338 47.4155H106.396V42.9578H107.101ZM118.738 45.7895C118.738 46.3868 118.626 46.903 118.4 47.338C118.175 47.7731 117.866 48.1086 117.473 48.3446C117.08 48.5806 116.631 48.6986 116.127 48.6986C115.622 48.6986 115.174 48.5806 114.781 48.3446C114.388 48.1086 114.078 47.7731 113.853 47.338C113.628 46.903 113.515 46.3868 113.515 45.7895C113.515 45.1922 113.628 44.676 113.853 44.2409C114.078 43.8058 114.388 43.4703 114.781 43.2344C115.174 42.9984 115.622 42.8804 116.127 42.8804C116.631 42.8804 117.08 42.9984 117.473 43.2344C117.866 43.4703 118.175 43.8058 118.4 44.2409C118.626 44.676 118.738 45.1922 118.738 45.7895ZM118.045 45.7895C118.045 45.2991 117.959 44.8852 117.788 44.5478C117.618 44.2105 117.389 43.9552 117.098 43.7819C116.809 43.6086 116.485 43.5219 116.127 43.5219C115.768 43.5219 115.444 43.6086 115.153 43.7819C114.864 43.9552 114.634 44.2105 114.463 44.5478C114.293 44.8852 114.208 45.2991 114.208 45.7895C114.208 46.2799 114.293 46.6937 114.463 47.0311C114.634 47.3685 114.864 47.6238 115.153 47.7971C115.444 47.9704 115.768 48.057 116.127 48.057C116.485 48.057 116.809 47.9704 117.098 47.7971C117.389 47.6238 117.618 47.3685 117.788 47.0311C117.959 46.6937 118.045 46.2799 118.045 45.7895ZM125.155 48.6212V42.9578H125.871V48.0128H128.622V48.6212H125.155ZM139.935 45.7895C139.935 46.3868 139.822 46.903 139.597 47.338C139.372 47.7731 139.063 48.1086 138.669 48.3446C138.276 48.5806 137.828 48.6986 137.323 48.6986C136.819 48.6986 136.37 48.5806 135.977 48.3446C135.584 48.1086 135.275 47.7731 135.05 47.338C134.824 46.903 134.712 46.3868 134.712 45.7895C134.712 45.1922 134.824 44.676 135.05 44.2409C135.275 43.8058 135.584 43.4703 135.977 43.2344C136.37 42.9984 136.819 42.8804 137.323 42.8804C137.828 42.8804 138.276 42.9984 138.669 43.2344C139.063 43.4703 139.372 43.8058 139.597 44.2409C139.822 44.676 139.935 45.1922 139.935 45.7895ZM139.242 45.7895C139.242 45.2991 139.156 44.8852 138.985 44.5478C138.815 44.2105 138.585 43.9552 138.294 43.7819C138.005 43.6086 137.682 43.5219 137.323 43.5219C136.965 43.5219 136.641 43.6086 136.35 43.7819C136.061 43.9552 135.831 44.2105 135.659 44.5478C135.49 44.8852 135.405 45.2991 135.405 45.7895C135.405 46.2799 135.49 46.6937 135.659 47.0311C135.831 47.3685 136.061 47.6238 136.35 47.7971C136.641 47.9704 136.965 48.057 137.323 48.057C137.682 48.057 138.005 47.9704 138.294 47.7971C138.585 47.6238 138.815 47.3685 138.985 47.0311C139.156 46.6937 139.242 46.2799 139.242 45.7895ZM150.396 44.7276C150.332 44.5414 150.249 44.3746 150.144 44.2271C150.042 44.0778 149.92 43.9505 149.778 43.8455C149.637 43.7404 149.478 43.6602 149.298 43.6049C149.119 43.5496 148.922 43.5219 148.709 43.5219C148.358 43.5219 148.04 43.6086 147.752 43.7819C147.465 43.9552 147.237 44.2105 147.068 44.5478C146.898 44.8852 146.813 45.2991 146.813 45.7895C146.813 46.2799 146.899 46.6937 147.071 47.0311C147.242 47.3685 147.474 47.6238 147.767 47.7971C148.06 47.9704 148.389 48.057 148.755 48.057C149.094 48.057 149.393 47.9879 149.651 47.8496C149.911 47.7095 150.113 47.5123 150.257 47.2579C150.404 47.0016 150.477 46.7002 150.477 46.3536L150.697 46.3978H148.917V45.7895H151.17V46.3978C151.17 46.8643 151.066 47.2699 150.858 47.6146C150.652 47.9593 150.367 48.2267 150.003 48.4166C149.641 48.6046 149.225 48.6986 148.755 48.6986C148.231 48.6986 147.771 48.5806 147.374 48.3446C146.979 48.1086 146.671 47.7731 146.45 47.338C146.23 46.903 146.12 46.3868 146.12 45.7895C146.12 45.3415 146.183 44.9387 146.308 44.5811C146.435 44.2216 146.614 43.9156 146.846 43.663C147.076 43.4104 147.35 43.2169 147.666 43.0823C147.982 42.9477 148.329 42.8804 148.709 42.8804C149.021 42.8804 149.311 42.9256 149.581 43.0159C149.853 43.1044 150.095 43.2307 150.307 43.3948C150.52 43.557 150.698 43.7515 150.841 43.9782C150.983 44.2031 151.082 44.4529 151.136 44.7276H150.396Z" fill="white"/>
<path d="M158.354 42.9578V48.6212H157.638V42.9578H158.354ZM164.622 48.6212V42.9578H168.192V43.5662H165.338V45.4798H168.007V46.0882H165.338V48.0128H168.238V48.6212H164.622Z" fill="white"/>
<path d="M177.473 44.3737C177.439 44.0935 177.298 43.8759 177.051 43.721C176.805 43.5662 176.503 43.4888 176.144 43.4888C175.883 43.4888 175.653 43.5293 175.457 43.6104C175.262 43.6915 175.11 43.8031 175 43.945C174.893 44.087 174.838 44.2483 174.838 44.429C174.838 44.5802 174.876 44.7101 174.951 44.8189C175.028 44.9258 175.126 45.0152 175.246 45.0871C175.365 45.1572 175.49 45.2152 175.621 45.2613C175.753 45.3056 175.873 45.3415 175.982 45.3692L176.583 45.524C176.737 45.5627 176.909 45.6162 177.098 45.6844C177.289 45.7526 177.47 45.8457 177.644 45.9637C177.819 46.0798 177.963 46.2292 178.077 46.4117C178.191 46.5942 178.248 46.8182 178.248 47.0836C178.248 47.3897 178.164 47.6662 177.996 47.9132C177.831 48.1603 177.588 48.3566 177.268 48.5023C176.951 48.6479 176.564 48.7207 176.109 48.7207C175.686 48.7207 175.319 48.6553 175.009 48.5244C174.701 48.3935 174.458 48.211 174.281 47.9769C174.105 47.7427 174.006 47.4708 173.983 47.1611H174.723C174.742 47.375 174.817 47.5519 174.948 47.692C175.081 47.8303 175.249 47.9335 175.451 48.0018C175.655 48.0681 175.875 48.1013 176.109 48.1013C176.383 48.1013 176.629 48.0589 176.846 47.9741C177.064 47.8874 177.236 47.7676 177.364 47.6146C177.491 47.4597 177.554 47.2791 177.554 47.0726C177.554 46.8845 177.499 46.7315 177.389 46.6136C177.279 46.4956 177.135 46.3997 176.956 46.3259C176.777 46.2522 176.583 46.1877 176.375 46.1324L175.647 45.9333C175.185 45.8061 174.819 45.6245 174.549 45.3885C174.28 45.1526 174.145 44.8438 174.145 44.4621C174.145 44.1451 174.235 43.8685 174.414 43.6325C174.595 43.3948 174.838 43.2104 175.142 43.0795C175.448 42.9468 175.79 42.8804 176.167 42.8804C176.549 42.8804 176.888 42.9458 177.184 43.0767C177.481 43.2058 177.716 43.3827 177.889 43.6077C178.064 43.8326 178.157 44.0879 178.167 44.3737H177.473Z" fill="white"/>
<mask id="mask1_237_1636" style="mask-type:luminance" maskUnits="userSpaceOnUse" x="9" y="0" width="23" height="14">
<path d="M9.51074 5.48387L24.7503 13.8742C26.4117 11.4613 28.7607 9.54194 31.3961 8.11613L18.0472 0.767736C17.1305 0.219352 16.1565 0 15.1826 0C12.2607 0 9.51074 2.30323 9.51074 5.48387Z" fill="white"/>
</mask>
<g mask="url(#mask1_237_1636)">
<path d="M-69.4365 -107.484V354.198H271.605L271.606 -107.483L-69.4365 -107.484Z" fill="url(#paint0_linear_237_1636)"/>
</g>
<mask id="mask2_237_1636" style="mask-type:luminance" maskUnits="userSpaceOnUse" x="25" y="8" width="22" height="33">
<path d="M25.7812 14.4223L44.1145 24.5675L40.1614 26.7611C40.1614 26.7611 33.3437 30.7643 26.1823 34.932C27.901 37.2352 30.25 39.0449 32.9427 40.2514L45.0885 33.5062C46.0624 30.8191 46.578 27.9127 46.578 24.8417C46.578 21.6062 45.9478 18.4256 44.8593 15.574L32.6562 8.8288C29.9062 10.0901 27.5573 12.0643 25.7812 14.4223Z" fill="white"/>
</mask>
<g mask="url(#mask2_237_1636)">
<path d="M-69.4375 354.198H271.605V-107.483H-69.4375V354.198Z" fill="url(#paint1_linear_237_1636)"/>
</g>
<mask id="mask3_237_1636" style="mask-type:luminance" maskUnits="userSpaceOnUse" x="0" y="10" width="23" height="29">
<path d="M0 14.4777L18.3333 24.568L14.3801 26.7616C14.3801 26.7616 7.56247 30.7648 0.401043 34.9325L0.458333 34.9874C3.26561 38.6067 8.53642 39.539 12.6041 37.2906L22.7447 31.6422C21.828 29.4487 21.3124 27.1454 21.3124 24.6228C21.3124 22.1551 21.828 19.7422 22.7447 17.6035L12.3749 11.8454C10.8854 11.0228 9.28121 10.639 7.67705 10.639C4.75519 10.639 1.83333 12.0099 0 14.4777Z" fill="white"/>
</mask>
<g mask="url(#mask3_237_1636)">
<path d="M-69.4369 -107.484L-69.4375 354.198H271.605V-107.483L-69.4369 -107.484Z" fill="url(#paint2_linear_237_1636)"/>
</g>
<mask id="mask4_237_1636" style="mask-type:luminance" maskUnits="userSpaceOnUse" x="9" y="35" width="23" height="15">
<path d="M9.625 44.6391C9.625 48.4229 13.9791 50.8358 17.4166 48.9165L31.6822 40.9649C29.1041 39.7036 26.8124 37.8391 25.151 35.5358C17.8177 39.8132 10.4271 44.1455 9.625 44.6391Z" fill="white"/>
</mask>
<g mask="url(#mask4_237_1636)">
<path d="M-69.4369 -107.484L-69.4375 354.198H271.605V-107.483L-69.4369 -107.484Z" fill="url(#paint3_linear_237_1636)"/>
</g>
</g>
<defs>
<linearGradient id="paint0_linear_237_1636" x1="20.4463" y1="0.0092119" x2="20.4463" y2="13.8642" gradientUnits="userSpaceOnUse">
<stop stop-color="#306EBB"/>
<stop offset="0.205952" stop-color="#3070BC"/>
<stop offset="0.571429" stop-color="#3A96D2"/>
<stop offset="0.792857" stop-color="#42BCE9"/>
<stop offset="1" stop-color="#53CABB"/>
</linearGradient>
<linearGradient id="paint1_linear_237_1636" x1="25.7978" y1="24.5427" x2="46.6015" y2="24.5427" gradientUnits="userSpaceOnUse">
<stop stop-color="#306EBB"/>
<stop offset="0.205952" stop-color="#3070BC"/>
<stop offset="0.571429" stop-color="#3A96D2"/>
<stop offset="0.792857" stop-color="#42BCE9"/>
<stop offset="1" stop-color="#53CABB"/>
</linearGradient>
<linearGradient id="paint2_linear_237_1636" x1="11.3972" y1="10.6436" x2="11.3972" y2="38.5034" gradientUnits="userSpaceOnUse">
<stop stop-color="#306EBB"/>
<stop offset="0.205952" stop-color="#3070BC"/>
<stop offset="0.571429" stop-color="#3A96D2"/>
<stop offset="0.792857" stop-color="#42BCE9"/>
<stop offset="1" stop-color="#53CABB"/>
</linearGradient>
<linearGradient id="paint3_linear_237_1636" x1="20.6725" y1="35.5534" x2="20.6724" y2="49.5846" gradientUnits="userSpaceOnUse">
<stop stop-color="#306EBB"/>
<stop offset="0.205952" stop-color="#3070BC"/>
<stop offset="0.571429" stop-color="#3A96D2"/>
<stop offset="0.792857" stop-color="#42BCE9"/>
<stop offset="1" stop-color="#53CABB"/>
</linearGradient>
<clipPath id="clip0_237_1636">
<rect width="205.103" height="51" fill="white"/>
</clipPath>
</defs>
</svg>
