<svg width="544" height="786" viewBox="0 0 544 786" fill="none" xmlns="http://www.w3.org/2000/svg">
<g clip-path="url(#clip0_416_5901)">
<path d="M632.69 358.203L632.243 358.234L186.94 387.818L198.297 264.194L346.731 254.332L644.047 234.58L632.69 358.203ZM188.955 385.254L631.124 355.879L642.031 237.143L199.863 266.519L188.955 385.254Z" fill="#E6E6E6" fill-opacity="0.76"/>
<path d="M531.095 118.068L530.647 118.097L85.3437 147.679L96.7013 24.0547L97.149 24.0251L542.452 -5.55649L531.095 118.068ZM87.3594 145.116L529.529 115.743L540.436 -2.99311L98.2677 26.3806L87.3594 145.116Z" fill="#E6E6E6" fill-opacity="0.76"/>
<path d="M284.27 255.916L203.848 136.527L203.904 135.906L215.203 12.8891L216.908 14.0095L205.665 136.406L282.907 251.074L294.035 129.918L295.74 131.038L284.27 255.916Z" fill="#E6E6E6" fill-opacity="0.76"/>
<path d="M514.174 369.36L512.469 368.24L523.711 245.842L446.469 131.174L435.342 252.333L433.637 251.212L445.107 126.333L525.529 245.72L525.472 246.341L514.174 369.36Z" fill="#E6E6E6" fill-opacity="0.76"/>
<path d="M442.821 127.761L444.408 128.846L453.37 7.14735L451.783 6.0626L442.821 127.761Z" fill="#E6E6E6" fill-opacity="0.76"/>
<path d="M276.007 375.058L277.594 376.143L286.556 254.444L284.969 253.359L276.007 375.058Z" fill="#E6E6E6" fill-opacity="0.76"/>
<path d="M174.397 134.901L175.984 135.985L184.947 14.287L183.36 13.2023L174.397 134.901Z" fill="#E6E6E6" fill-opacity="0.76"/>
<path d="M437.297 206.572L286.721 216.593L233.878 138.13L233.934 137.514L245.116 15.6329L246.804 16.7428L235.678 138.01L286.946 214.135L433.921 204.353L382.653 128.228L382.71 127.613L393.892 5.73084L395.58 6.84075L384.454 128.108L437.297 206.572Z" fill="#E6E6E6" fill-opacity="0.76"/>
<path d="M437.3 210.13L464.088 249.789L465.133 248.468L438.346 208.809L437.3 210.13Z" fill="#E6E6E6" fill-opacity="0.76"/>
<path d="M412.997 128.556L414.584 129.641L423.546 7.94123L421.959 6.85652L412.997 128.556Z" fill="#E6E6E6" fill-opacity="0.76"/>
<path d="M532.67 126.644L640.076 285.575L641.124 284.252L533.718 125.321L532.67 126.644Z" fill="#E6E6E6" fill-opacity="0.76"/>
<path d="M353.752 496.375L89.4268 104.015L90.4514 102.712L352.388 491.527L374.853 247.05L376.56 248.172L353.752 496.375Z" fill="#E6E6E6" fill-opacity="0.76"/>
<path d="M305.831 374.269L307.418 375.354L316.38 253.655L314.793 252.57L305.831 374.269Z" fill="#E6E6E6" fill-opacity="0.76"/>
<path d="M484.78 369.505L486.367 370.59L495.329 248.891L493.742 247.807L484.78 369.505Z" fill="#E6E6E6" fill-opacity="0.76"/>
<path d="M633.667 365.053L632.641 366.358L553.131 248.358L560.755 165.463L562.466 166.588L554.955 248.236L633.667 365.053Z" fill="#E6E6E6" fill-opacity="0.76"/>
<path d="M897.763 -13.131L897.315 -13.1009L452.009 16.4744L463.368 -107.149L611.803 -117.008L909.121 -136.754L897.763 -13.131ZM454.025 13.9111L896.197 -15.4557L907.105 -134.191L464.934 -104.824L454.025 13.9111Z" fill="#E6E6E6" fill-opacity="0.76"/>
<path d="M796.149 -253.284L795.701 -253.254L350.398 -223.671L361.755 -347.295L362.203 -347.324L807.506 -376.908L796.149 -253.284ZM352.414 -226.234L794.582 -255.61L805.49 -374.345L363.322 -344.97L352.414 -226.234Z" fill="#E6E6E6" fill-opacity="0.76"/>
<path d="M541.079 3.71213L542.666 4.79688L551.628 -116.902L550.041 -117.986L541.079 3.71213Z" fill="#E6E6E6" fill-opacity="0.76"/>
<path d="M618.814 125.032L354.49 -267.33L355.515 -268.633L617.45 120.183L639.917 -124.292L641.623 -123.171L618.814 125.032Z" fill="#E6E6E6" fill-opacity="0.76"/>
<path d="M850.478 231L850.031 231.03L404.725 260.604L416.084 136.981L564.518 127.123L861.837 107.378L850.478 231ZM406.741 258.041L848.912 228.676L859.821 109.94L417.65 139.306L406.741 258.041Z" fill="#E6E6E6" fill-opacity="0.76"/>
<path d="M748.881 -9.1407L748.433 -9.11069L303.128 20.466L314.486 -103.157L314.934 -103.187L760.238 -132.764L748.881 -9.1407ZM305.143 17.9033L747.314 -11.4664L758.222 -130.202L316.052 -100.832L305.143 17.9033Z" fill="#E6E6E6" fill-opacity="0.76"/>
<path d="M502.057 128.706L421.635 9.31744L421.692 8.69627L432.991 -114.32L434.696 -113.2L423.453 9.19583L500.695 123.864L511.823 2.70842L513.527 3.82834L502.057 128.706Z" fill="#E6E6E6" fill-opacity="0.76"/>
<path d="M493.798 247.854L495.385 248.938L504.347 127.24L502.76 126.155L493.798 247.854Z" fill="#E6E6E6" fill-opacity="0.76"/>
<path d="M392.194 7.69751L393.781 8.78223L402.743 -112.916L401.156 -114.001L392.194 7.69751Z" fill="#E6E6E6" fill-opacity="0.76"/>
<path d="M655.078 79.36L504.502 89.3812L451.659 10.9184L451.715 10.3033L462.897 -111.579L464.585 -110.468L453.46 10.7982L504.728 86.9234L651.703 77.1413L600.435 1.01701L600.491 0.401895L611.673 -121.481L613.361 -120.371L602.235 0.896745L655.078 79.36Z" fill="#E6E6E6" fill-opacity="0.76"/>
<path d="M571.535 369.163L307.209 -23.1962L308.234 -24.4988L570.171 364.314L592.635 119.838L594.342 120.959L571.535 369.163Z" fill="#E6E6E6" fill-opacity="0.76"/>
<path d="M523.624 247.058L525.211 248.143L534.173 126.444L532.586 125.359L523.624 247.058Z" fill="#E6E6E6" fill-opacity="0.76"/>
<path d="M585.305 602.304L584.858 602.334L139.555 631.918L150.912 508.294L299.346 498.432L596.662 478.68L585.305 602.304ZM141.571 629.355L583.739 599.979L594.647 481.244L152.479 510.619L141.571 629.355Z" fill="#B3B3B3" fill-opacity="0.33"/>
<path d="M483.707 362.164L483.259 362.193L37.9566 391.777L49.3139 268.153L49.7616 268.123L495.064 238.539L483.707 362.164ZM39.9723 389.214L482.141 359.838L493.048 241.102L50.88 270.478L39.9723 389.214Z" fill="#B3B3B3" fill-opacity="0.33"/>
<path d="M236.898 500.022L156.477 380.635L156.533 380.014L167.831 256.996L169.536 258.116L158.294 380.513L235.536 495.181L246.664 374.024L248.368 375.144L236.898 500.022Z" fill="#B3B3B3" fill-opacity="0.33"/>
<path d="M466.787 613.46L465.083 612.34L476.326 489.943L399.084 375.274L387.956 496.432L386.251 495.312L397.722 370.433L478.143 489.821L478.087 490.442L466.787 613.46Z" fill="#B3B3B3" fill-opacity="0.33"/>
<path d="M395.438 371.871L397.025 372.956L405.988 251.258L404.401 250.173L395.438 371.871Z" fill="#B3B3B3" fill-opacity="0.33"/>
<path d="M228.616 619.159L230.203 620.244L239.165 498.546L237.578 497.461L228.616 619.159Z" fill="#B3B3B3" fill-opacity="0.33"/>
<path d="M127.009 379.009L128.596 380.094L137.558 258.395L135.971 257.311L127.009 379.009Z" fill="#B3B3B3" fill-opacity="0.33"/>
<path d="M389.907 450.671L239.33 460.693L186.488 382.23L186.543 381.615L197.725 259.733L199.413 260.842L188.288 382.109L239.556 458.235L386.531 448.453L335.263 372.329L335.319 371.713L346.501 249.831L348.189 250.94L337.063 372.208L389.907 450.671Z" fill="#B3B3B3" fill-opacity="0.33"/>
<path d="M389.914 454.228L416.701 493.887L417.746 492.566L390.959 452.907L389.914 454.228Z" fill="#B3B3B3" fill-opacity="0.33"/>
<path d="M365.616 372.666L367.203 373.751L376.165 252.052L374.578 250.967L365.616 372.666Z" fill="#B3B3B3" fill-opacity="0.33"/>
<path d="M485.283 370.742L592.689 529.674L593.738 528.351L486.332 369.419L485.283 370.742Z" fill="#B3B3B3" fill-opacity="0.33"/>
<path d="M306.363 740.472L42.0394 348.11L43.064 346.807L304.999 735.623L327.466 491.147L329.172 492.269L306.363 740.472Z" fill="#B3B3B3" fill-opacity="0.33"/>
<path d="M258.44 618.367L260.027 619.452L268.989 497.754L267.402 496.669L258.44 618.367Z" fill="#B3B3B3" fill-opacity="0.33"/>
<path d="M437.384 613.605L438.971 614.689L447.933 492.991L446.346 491.906L437.384 613.605Z" fill="#B3B3B3" fill-opacity="0.33"/>
<path d="M586.281 609.153L585.254 610.458L505.744 492.457L513.369 409.563L515.079 410.687L507.569 492.336L586.281 609.153Z" fill="#B3B3B3" fill-opacity="0.33"/>
<path d="M509.208 451.05L535.996 490.71L537.041 489.389L510.253 449.73L509.208 451.05Z" fill="#B3B3B3" fill-opacity="0.33"/>
<path d="M850.368 230.963L849.92 230.993L404.617 260.578L415.975 136.953L564.408 127.092L861.724 107.34L850.368 230.963ZM406.633 258.014L848.802 228.639L859.709 109.903L417.541 139.279L406.633 258.014Z" fill="#B3B3B3" fill-opacity="0.33"/>
<path d="M748.777 -9.16946L748.33 -9.13993L303.023 20.4334L314.382 -103.19L314.83 -103.219L760.136 -132.793L748.777 -9.16946ZM305.039 17.8705L747.211 -11.4947L758.12 -130.229L315.949 -100.864L305.039 17.8705Z" fill="#B3B3B3" fill-opacity="0.33"/>
<path d="M501.953 128.676L421.531 9.28787L421.588 8.66702L432.886 -114.351L434.591 -113.23L423.349 9.16656L500.591 123.834L511.718 2.67746L513.423 3.79784L501.953 128.676Z" fill="#B3B3B3" fill-opacity="0.33"/>
<path d="M493.696 247.822L495.283 248.906L504.245 127.208L502.658 126.123L493.696 247.822Z" fill="#B3B3B3" fill-opacity="0.33"/>
<path d="M392.085 7.66528L393.672 8.75L402.634 -112.948L401.047 -114.033L392.085 7.66528Z" fill="#B3B3B3" fill-opacity="0.33"/>
<path d="M654.975 79.3304L504.399 89.3518L451.556 10.8891L451.612 10.2737L462.794 -111.608L464.482 -110.498L453.356 10.7685L504.625 86.8937L651.6 77.1124L600.331 0.987724L600.388 0.372299L611.57 -121.51L613.258 -120.4L602.132 0.867149L654.975 79.3304Z" fill="#B3B3B3" fill-opacity="0.33"/>
<path d="M571.432 369.134L307.106 -23.226L308.13 -24.5288L570.067 364.284L592.532 119.808L594.239 120.93L571.432 369.134Z" fill="#B3B3B3" fill-opacity="0.33"/>
<path d="M523.52 247.028L525.107 248.112L534.07 126.414L532.483 125.329L523.52 247.028Z" fill="#B3B3B3" fill-opacity="0.33"/>
<path d="M803.086 475.092L802.639 475.122L357.336 504.706L368.693 381.082L517.127 371.22L814.443 351.468L803.086 475.092ZM359.351 502.143L801.52 472.767L812.427 354.031L370.26 383.407L359.351 502.143Z" fill="#B3B3B3" fill-opacity="0.33"/>
<path d="M701.491 234.954L701.043 234.984L255.74 264.568L267.097 140.944L267.545 140.915L712.847 111.33L701.491 234.954ZM257.756 262.005L699.924 232.629L710.831 113.893L268.663 143.269L257.756 262.005Z" fill="#B3B3B3" fill-opacity="0.33"/>
<path d="M454.68 372.812L374.257 253.424L374.315 252.803L385.613 129.786L387.317 130.906L376.076 253.303L453.318 367.971L464.445 246.814L466.149 247.934L454.68 372.812Z" fill="#B3B3B3" fill-opacity="0.33"/>
<path d="M446.405 491.953L447.992 493.038L456.954 371.34L455.367 370.255L446.405 491.953Z" fill="#B3B3B3" fill-opacity="0.33"/>
<path d="M344.8 251.8L346.387 252.885L355.349 131.186L353.762 130.102L344.8 251.8Z" fill="#B3B3B3" fill-opacity="0.33"/>
<path d="M607.693 323.461L457.117 333.482L404.274 255.019L404.331 254.404L415.512 132.522L417.2 133.632L406.075 254.899L457.343 331.023L604.318 321.242L553.05 245.117L553.106 244.502L564.289 122.62L565.976 123.73L554.85 244.997L607.693 323.461Z" fill="#B3B3B3" fill-opacity="0.33"/>
<path d="M524.15 613.263L259.825 220.903L260.849 219.601L522.786 608.414L545.251 363.937L546.957 365.059L524.15 613.263Z" fill="#B3B3B3" fill-opacity="0.33"/>
<path d="M476.233 491.161L477.82 492.246L486.782 370.548L485.195 369.463L476.233 491.161Z" fill="#B3B3B3" fill-opacity="0.33"/>
</g>
<defs>
<clipPath id="clip0_416_5901">
<rect width="544" height="786" fill="white"/>
</clipPath>
</defs>
</svg>
