<svg width="2155" height="330" viewBox="0 0 2155 330" fill="none" xmlns="http://www.w3.org/2000/svg">
<path d="M443.495 255H457.893V299.464C457.893 316.286 447.963 330 419 330V320.464C438.529 320.464 443.495 310.393 443.495 299.464V255Z" fill="white" fill-opacity="0.74"/>
<path d="M542.805 255.107L609.999 255.214V265.286H558.362V286.5H594.111V296.679H558.362V319.821H609.999V330H542.805V255.107Z" fill="white" fill-opacity="0.74"/>
<path d="M826.469 255H842.688L791.879 330L768.708 294.214L745.207 330L694.894 255H711.444L745.207 305.143L768.874 269.143L791.879 305.143L826.469 255Z" fill="white" fill-opacity="0.74"/>
<path d="M927.633 255.107L994.828 255.214V265.286H943.191V286.5H978.939V296.679H943.191V319.821H994.828V330H927.633V255.107Z" fill="white" fill-opacity="0.74"/>
<path d="M1095.28 255.107V320.036H1138.81V329.893H1079.72V255.107H1095.28Z" fill="white" fill-opacity="0.74"/>
<path d="M1239.29 255.107V320.036H1282.81V329.893H1223.73V255.107H1239.29Z" fill="white" fill-opacity="0.74"/>
<path d="M1367.74 255.107L1434.93 255.214V265.286H1383.3V286.5H1419.04V296.679H1383.3V319.821H1434.93V330H1367.74V255.107Z" fill="white" fill-opacity="0.74"/>
<path d="M1585.7 276C1585.2 283.929 1577.42 291 1566 293.893L1592.15 329.893H1574.94L1542.83 285.643L1553.26 285.214C1554.09 285.214 1554.58 285.107 1555.08 285.107L1557.4 285C1564.51 284.25 1569.81 280.179 1570.14 275.571C1570.31 272.571 1568.32 269.571 1564.68 267.536C1561.04 265.5 1557.23 265.179 1552.6 265.179C1552.43 265.179 1552.1 265.179 1551.93 265.179H1535.38V329.893H1519.83V255.107H1551.77C1560.54 255.107 1567.82 256.071 1574.77 259.821C1582.06 263.786 1586.19 270 1585.7 276Z" fill="white" fill-opacity="0.74"/>
<path d="M1707.37 265.179C1700.92 265.179 1694.8 268.071 1693.97 272.357C1693.64 273.321 1693.8 274.393 1693.8 275.143C1694.47 281.036 1702.41 284.571 1709.53 287.464L1711.18 288.107C1718.79 291.214 1726.24 294.75 1731.04 299.679L1728.89 300.536L1731.21 299.679C1733.86 302.464 1735.51 305.786 1735.84 309.107C1736.34 312.536 1735.51 316.071 1733.36 319.071C1728.89 325.393 1718.79 329.679 1708.04 329.893H1706.71C1697.78 329.893 1688.18 327.75 1681.06 324.107L1677.09 322.179L1687.02 314.357L1690.82 316.286C1695.13 318.321 1701.25 319.821 1706.71 319.821C1713.17 319.821 1719.29 316.821 1720.12 312.536C1720.28 311.786 1720.45 311.036 1720.28 309.857C1719.62 303.964 1711.68 300.429 1704.56 297.429L1702.91 296.786C1690.66 291.964 1679.4 285.964 1678.25 275.893C1677.75 272.357 1678.74 268.821 1680.89 265.929C1685.53 259.179 1695.95 255.107 1707.37 255.107C1716.31 255.107 1726.08 257.25 1733.03 260.786L1737 262.821L1727.07 270.643L1723.26 268.714C1719.13 266.571 1712.84 265.179 1707.37 265.179Z" fill="white" fill-opacity="0.74"/>
<path d="M0 21.0857V0.234283H212.675V21.0857H126.905V163.766H85.3326V21.0857H0Z" fill="white"/>
<path d="M430.574 45.92C429.261 63.2571 408.694 78.72 378.499 85.0457L447.641 163.766H402.13L317.235 67.0057L344.804 66.0686C346.992 66.0686 348.305 65.8343 349.617 65.8343L355.744 65.6C374.561 63.96 388.564 55.0571 389.439 44.9829C389.877 38.4229 384.626 31.8629 374.998 27.4114C365.371 22.96 355.306 22.2571 343.053 22.2571C342.616 22.2571 341.741 22.2571 341.303 22.2571H297.543V163.766H256.408V0.234283H340.865C364.058 0.234283 383.313 2.34286 401.692 10.5429C420.947 19.2114 431.887 32.8 430.574 45.92Z" fill="white"/>
<path d="M659.051 0H697.122V96.9943C697.122 133.777 670.866 164 594.285 164C521.206 164 491.449 132.371 491.449 96.9943V0H529.958V96.9943C529.958 119.72 545.274 142.914 594.285 142.914C646.36 142.914 659.051 121.126 659.051 96.9943V0Z" fill="white"/>
<path d="M741.019 0.234283L918.686 0.468579V22.4914H782.154V68.88H876.676V91.1371H782.154V141.743H918.686V164H741.019V0.234283Z" fill="white"/>
<path d="M1095.42 164L962.385 0H1006.15L1095.42 109.646L1186.87 0H1229.76L1095.42 164Z" fill="white"/>
<path d="M1216.66 164L1349.69 0L1484.03 164H1441.15L1349.69 54.3543L1260.42 164H1216.66Z" fill="white"/>
<path d="M1568.9 0.234283V142.211H1683.99V163.766H1527.76V0.234283H1568.9Z" fill="white"/>
<path d="M1895.36 0H1933.44V96.9943C1933.44 133.777 1907.18 164 1830.6 164C1757.52 164 1727.76 132.371 1727.76 96.9943V0H1766.27V96.9943C1766.27 119.72 1781.59 142.914 1830.6 142.914C1882.67 142.914 1895.36 121.126 1895.36 96.9943V0Z" fill="white"/>
<path d="M1977.33 0.234283L2155 0.468579V22.4914H2018.47V68.88H2112.99V91.1371H2018.47V141.743H2155V164H1977.33V0.234283Z" fill="white"/>
</svg>
